<svg width="115" height="53" viewBox="0 0 115 53" fill="none" xmlns="http://www.w3.org/2000/svg">
<g filter="url(#filter0_f_395_187)">
<circle cx="101.394" cy="13" r="5" fill="white"/>
</g>
<path d="M1 42C1.62156 42.0878 7.02459 41 10.8975 41.5C14.7705 42 18.5966 49.2256 20.3648 47C25.5287 40.5 28.541 32 33.2746 41C39.5976 53.0219 38.8689 56.5 44.4631 44.5C50.0574 32.5 58.6639 3.5 63.8279 22.5C64.784 26.0181 65.2566 29.4067 67.2705 32C70.1407 35.6961 74.1557 30.5 77.168 37.5C79.6699 43.3138 82.7623 35.5 84.0533 27.5C85.3443 19.5 86.2049 14.5 93.9508 17C100.148 19 101.697 13.8333 101.697 11" stroke="url(#paint0_linear_395_187)" stroke-width="1.5"/>
<defs>
<filter id="filter0_f_395_187" x="88.3936" y="0" width="26" height="26" filterUnits="userSpaceOnUse" color-interpolation-filters="sRGB">
<feFlood flood-opacity="0" result="BackgroundImageFix"/>
<feBlend mode="normal" in="SourceGraphic" in2="BackgroundImageFix" result="shape"/>
<feGaussianBlur stdDeviation="4" result="effect1_foregroundBlur_395_187"/>
</filter>
<linearGradient id="paint0_linear_395_187" x1="77.5" y1="19.5" x2="-5.5" y2="58.5" gradientUnits="userSpaceOnUse">
<stop stop-color="white"/>
<stop offset="1" stop-color="white" stop-opacity="0"/>
</linearGradient>
</defs>
</svg>
