<svg width="169" height="44" viewBox="0 0 169 44" fill="none" xmlns="http://www.w3.org/2000/svg">
<mask id="path-1-inside-1_537_642" fill="white">
<path fill-rule="evenodd" clip-rule="evenodd" d="M10 0C4.47715 0 0 4.47715 0 10V43.5C0 43.7761 0.223854 44 0.499996 44H144.998C144.999 44 145 43.999 145 43.9977C145 43.9964 145.001 43.9953 145.002 43.9953C150.42 44.0046 155.979 43.9981 161.031 43.9922C163.889 43.9888 166.584 43.9857 169 43.9857C151.045 43.9857 148.848 28.4198 146.992 15.2638C146.908 14.6657 146.824 14.0726 146.739 13.4862C146.237 9.99528 145.178 7.35158 143.867 5.37224C142.254 2.28722 139.077 0.148667 135.389 0.00744324C135.286 0.00243239 135.185 0 135.088 0H135H117.612H10Z"/>
</mask>
<path fill-rule="evenodd" clip-rule="evenodd" d="M10 0C4.47715 0 0 4.47715 0 10V43.5C0 43.7761 0.223854 44 0.499996 44H144.998C144.999 44 145 43.999 145 43.9977C145 43.9964 145.001 43.9953 145.002 43.9953C150.42 44.0046 155.979 43.9981 161.031 43.9922C163.889 43.9888 166.584 43.9857 169 43.9857C151.045 43.9857 148.848 28.4198 146.992 15.2638C146.908 14.6657 146.824 14.0726 146.739 13.4862C146.237 9.99528 145.178 7.35158 143.867 5.37224C142.254 2.28722 139.077 0.148667 135.389 0.00744324C135.286 0.00243239 135.185 0 135.088 0H135H117.612H10Z" fill="#3E3E51"/>
<path d="M161.031 43.9922L161.032 44.5922L161.031 43.9922ZM146.992 15.2638L147.586 15.1799V15.1799L146.992 15.2638ZM146.739 13.4862L146.146 13.5717V13.5717L146.739 13.4862ZM143.867 5.37224L143.335 5.65029L143.35 5.67778L143.367 5.70363L143.867 5.37224ZM135.389 0.00744324L135.36 0.606772L135.366 0.607004L135.389 0.00744324ZM145.002 43.9953L145.001 44.5953L145.002 43.9953ZM0.6 10C0.6 4.80852 4.80852 0.6 10 0.6V-0.6C4.14578 -0.6 -0.6 4.14578 -0.6 10H0.6ZM0.6 43.5V10H-0.6V43.5H0.6ZM0.499996 43.4C0.555231 43.4 0.6 43.4448 0.6 43.5H-0.6C-0.6 44.1075 -0.107524 44.6 0.499996 44.6V43.4ZM144.998 43.4H0.499996V44.6H144.998V43.4ZM145.001 44.5953C150.42 44.6046 155.98 44.5981 161.032 44.5922L161.03 43.3922C155.978 43.3981 150.42 43.4046 145.003 43.3953L145.001 44.5953ZM161.032 44.5922C163.89 44.5888 166.585 44.5857 169 44.5857V43.3857C166.584 43.3857 163.888 43.3888 161.03 43.3922L161.032 44.5922ZM169 43.3857C164.6 43.3857 161.208 42.433 158.557 40.8342C155.907 39.2351 153.959 36.9658 152.486 34.2705C149.522 28.8488 148.518 21.7865 147.586 15.1799L146.398 15.3476C147.322 21.897 148.344 29.1956 151.433 34.846C152.985 37.6866 155.069 40.131 157.938 41.8617C160.807 43.5926 164.422 44.5857 169 44.5857V43.3857ZM147.586 15.1799C147.502 14.582 147.418 13.9881 147.333 13.4007L146.146 13.5717C146.23 14.1571 146.313 14.7494 146.398 15.3476L147.586 15.1799ZM147.333 13.4007C146.82 9.8334 145.734 7.10333 144.367 5.04084L143.367 5.70363C144.623 7.59984 145.654 10.1572 146.146 13.5717L147.333 13.4007ZM135.366 0.607004C138.832 0.7397 141.818 2.74892 143.335 5.65029L144.399 5.09418C142.689 1.82552 139.323 -0.442367 135.412 -0.592117L135.366 0.607004ZM135.418 -0.591855C135.306 -0.597318 135.195 -0.6 135.088 -0.6V0.6C135.175 0.6 135.266 0.602183 135.36 0.606741L135.418 -0.591855ZM135.088 -0.6H135V0.6H135.088V-0.6ZM135 -0.6H117.612V0.6H135V-0.6ZM10 0.6H117.612V-0.6H10V0.6ZM145.6 43.9977C145.6 44.3275 145.332 44.5959 145.001 44.5953L145.003 43.3953C144.67 43.3948 144.4 43.6652 144.4 43.9977H145.6ZM144.998 44.6C145.33 44.6 145.6 44.3303 145.6 43.9977H144.4C144.4 43.6676 144.668 43.4 144.998 43.4V44.6Z" fill="#5B5870" mask="url(#path-1-inside-1_537_642)"/>
</svg>
