<svg width="169" height="44" viewBox="0 0 169 44" fill="none" xmlns="http://www.w3.org/2000/svg">
<path fill-rule="evenodd" clip-rule="evenodd" d="M10 0C4.47715 0 0 4.47715 0 10V43.5C0 43.7761 0.223854 44 0.499996 44H144.998C144.999 44 145 43.999 145 43.9977C145 43.9964 145.001 43.9953 145.002 43.9953C150.42 44.0046 155.979 43.9981 161.031 43.9922C163.889 43.9888 166.584 43.9857 169 43.9857C151.045 43.9857 148.848 28.4198 146.992 15.2638C146.908 14.6657 146.824 14.0726 146.739 13.4862C146.237 9.99528 145.178 7.35158 143.867 5.37224C142.254 2.28722 139.077 0.148667 135.389 0.00744324C135.286 0.00243239 135.185 0 135.088 0H135H117.612H10Z" fill="url(#paint0_linear_555_1341)"/>
<defs>
<linearGradient id="paint0_linear_555_1341" x1="0" y1="22" x2="188.655" y2="42.3587" gradientUnits="userSpaceOnUse">
<stop stop-color="#C20505"/>
<stop offset="1" stop-color="#F84F4F"/>
</linearGradient>
</defs>
</svg>
