<svg width="109" height="133" viewBox="0 0 109 133" fill="none" xmlns="http://www.w3.org/2000/svg">
<path d="M24.7633 128.242C24.7633 129.698 23.5733 131.098 21.4033 131.098C19.4573 131.098 17.9593 130.034 17.9593 128.312H19.6673C19.7373 129.11 20.2973 129.754 21.4033 129.754C22.5233 129.754 23.1533 129.152 23.1533 128.326C23.1533 125.974 17.9873 127.5 17.9873 123.916C17.9873 122.208 19.3453 121.144 21.3333 121.144C23.1953 121.144 24.5113 122.124 24.6513 123.79H22.8873C22.8313 123.132 22.2573 122.53 21.2493 122.502C20.3253 122.474 19.6113 122.922 19.6113 123.86C19.6113 126.058 24.7633 124.686 24.7633 128.242ZM25.8346 127.136C25.8346 124.728 27.4026 123.16 29.6146 123.16C31.5046 123.16 32.7366 124.098 33.1706 125.722H31.4486C31.1826 124.98 30.5666 124.504 29.6146 124.504C28.3266 124.504 27.4726 125.456 27.4726 127.136C27.4726 128.83 28.3266 129.782 29.6146 129.782C30.5666 129.782 31.1546 129.362 31.4486 128.564H33.1706C32.7366 130.076 31.5046 131.126 29.6146 131.126C27.4026 131.126 25.8346 129.558 25.8346 127.136ZM33.9491 127.108C33.9491 124.728 35.5591 123.16 37.5891 123.16C38.8911 123.16 39.7871 123.776 40.2631 124.406V123.286H41.8731V131H40.2631V129.852C39.7731 130.51 38.8491 131.126 37.5611 131.126C35.5591 131.126 33.9491 129.488 33.9491 127.108ZM40.2631 127.136C40.2631 125.484 39.1291 124.546 37.9251 124.546C36.7351 124.546 35.5871 125.442 35.5871 127.108C35.5871 128.774 36.7351 129.74 37.9251 129.74C39.1291 129.74 40.2631 128.802 40.2631 127.136ZM49.1634 131V126.688C49.1634 125.274 48.3934 124.546 47.2314 124.546C46.0554 124.546 45.2854 125.274 45.2854 126.688V131H43.6894V123.286H45.2854V124.168C45.8034 123.538 46.6574 123.16 47.5814 123.16C49.3874 123.16 50.7454 124.294 50.7454 126.45V131H49.1634ZM55.3259 126.114C55.3259 123.202 57.5519 121.144 60.2959 121.144C62.3259 121.144 64.0759 122.166 64.8179 124.07H62.8999C62.3819 123.034 61.4579 122.544 60.2959 122.544C58.3639 122.544 56.9639 123.916 56.9639 126.114C56.9639 128.312 58.3639 129.698 60.2959 129.698C61.4579 129.698 62.3819 129.208 62.8999 128.172H64.8179C64.0759 130.076 62.3259 131.084 60.2959 131.084C57.5519 131.084 55.3259 129.04 55.3259 126.114ZM73.756 127.136C73.756 129.558 71.964 131.126 69.752 131.126C67.554 131.126 65.888 129.558 65.888 127.136C65.888 124.714 67.624 123.16 69.822 123.16C72.02 123.16 73.756 124.714 73.756 127.136ZM67.512 127.136C67.512 128.886 68.548 129.74 69.752 129.74C70.942 129.74 72.118 128.886 72.118 127.136C72.118 125.386 70.984 124.546 69.794 124.546C68.59 124.546 67.512 125.386 67.512 127.136ZM74.5218 127.108C74.5218 124.728 76.1318 123.16 78.1758 123.16C79.1838 123.16 80.2478 123.636 80.8358 124.364V120.64H82.4458V131H80.8358V129.838C80.3458 130.538 79.4218 131.126 78.1618 131.126C76.1318 131.126 74.5218 129.488 74.5218 127.108ZM80.8358 127.136C80.8358 125.484 79.7018 124.546 78.4978 124.546C77.3078 124.546 76.1598 125.442 76.1598 127.108C76.1598 128.774 77.3078 129.74 78.4978 129.74C79.7018 129.74 80.8358 128.802 80.8358 127.136ZM87.51 124.504C86.432 124.504 85.564 125.232 85.396 126.45H89.666C89.638 125.26 88.7 124.504 87.51 124.504ZM91.122 128.704C90.688 130.048 89.47 131.126 87.58 131.126C85.368 131.126 83.73 129.558 83.73 127.136C83.73 124.714 85.298 123.16 87.58 123.16C89.778 123.16 91.332 124.686 91.332 126.954C91.332 127.22 91.318 127.472 91.276 127.738H85.382C85.494 129.012 86.404 129.782 87.58 129.782C88.56 129.782 89.106 129.306 89.4 128.704H91.122Z" fill="white" fill-opacity="0.6"/>
<path d="M16.8949 12.0679C15.6147 12.0679 14.3869 12.5764 13.4817 13.4817C12.5764 14.3869 12.0679 15.6147 12.0679 16.8949V36.2032H36.2032V12.0679H16.8949ZM30.1694 30.1694H18.1017V18.1017H30.1694V30.1694Z" fill="white"/>
<path d="M12.0679 91.714C12.0679 92.9942 12.5764 94.222 13.4817 95.1273C14.3869 96.0325 15.6147 96.5411 16.8949 96.5411H36.2032V72.4058H12.0679V91.714ZM18.1017 78.4396H30.1694V90.5072H18.1017V78.4396Z" fill="white"/>
<path d="M72.4058 96.5411H91.714C92.9942 96.5411 94.222 96.0325 95.1273 95.1273C96.0325 94.222 96.5411 92.9942 96.5411 91.714V72.4058H72.4058V96.5411ZM78.4396 78.4396H90.5072V90.5072H78.4396V78.4396Z" fill="white"/>
<path d="M91.714 12.0679H72.4058V36.2032H96.5411V16.8949C96.5411 15.6147 96.0325 14.3869 95.1273 13.4817C94.222 12.5764 92.9942 12.0679 91.714 12.0679ZM90.5072 30.1694H78.4396V18.1017H90.5072V30.1694Z" fill="white"/>
<path d="M60.3382 30.1691V24.1353H48.2705V36.2029H54.3043V30.1691H60.3382Z" fill="white"/>
<path d="M36.2031 36.2031H42.237V42.237H36.2031V36.2031Z" fill="white"/>
<path d="M42.2368 42.2368H54.3045V48.2706H42.2368V42.2368Z" fill="white"/>
<path d="M60.3383 18.1017V24.1355H66.3721V12.0679H42.2368V24.1355H48.2706V18.1017H60.3383Z" fill="white"/>
<path d="M12.0679 42.2368H18.1017V54.3045H12.0679V42.2368Z" fill="white"/>
<path d="M36.2032 48.2706V54.3045H30.1694V42.2368H24.1355V54.3045H18.1017V60.3383H12.0679V66.3721H24.1355V60.3383H30.1694V66.3721H36.2032V60.3383H42.237V48.2706H36.2032Z" fill="white"/>
<path d="M60.3385 48.2704H66.3723V54.3043H72.4062V48.2704H78.44V42.2366H66.3723V30.1689H60.3385V36.2028H54.3047V42.2366H60.3385V48.2704Z" fill="white"/>
<path d="M54.3045 90.5075H42.2368V96.5413H66.3721V90.5075H60.3383V84.4736H54.3045V90.5075Z" fill="white"/>
<path d="M66.372 60.3382V54.3043H60.3382V48.2705H54.3043V54.3043H48.2705V60.3382H54.3043V66.372H60.3382V60.3382H66.372Z" fill="white"/>
<path d="M90.5073 60.3384H96.5412V66.3722H90.5073V60.3384Z" fill="white"/>
<path d="M66.3721 60.3384H84.4736V66.3722H66.3721V60.3384Z" fill="white"/>
<path d="M90.5076 42.2368H84.4738V48.2706H78.4399V54.3045H84.4738V60.3383H90.5076V54.3045H96.5414V48.2706H90.5076V42.2368Z" fill="white"/>
<path d="M60.3384 66.3721H66.3722V84.4736H60.3384V66.3721Z" fill="white"/>
<path d="M42.2368 84.4737H48.2706V78.4399H54.3045V72.406H48.2706V60.3384H42.2368V84.4737Z" fill="white"/>
</svg>
