<svg width="17" height="17" viewBox="0 0 17 17" fill="none" xmlns="http://www.w3.org/2000/svg">
<path d="M1.67149 2.50723C1.67149 1.12449 2.79598 0 4.17872 0C5.56145 0 6.68594 1.12449 6.68594 2.50723V3.34297H7.52168V5.01445H4.17872V3.34297H5.01446V2.50723C5.01446 2.04631 4.63963 1.67148 4.17872 1.67148C3.7178 1.67148 3.34297 2.04631 3.34297 2.50723V8.35742H15.0434H16.7148V10.0289H15.0434V10.8646C15.0434 12.5533 14.0346 14.0075 12.5896 14.666V16.7148H10.9181V15.0404C10.9002 15.0408 10.8826 15.0434 10.8647 15.0434H5.8502V16.7148H4.17872V14.6919C2.70489 14.0455 1.67149 12.5742 1.67149 10.8646V10.0289H7.62939e-06V8.35742H1.67149V2.50723Z" fill="white" fill-opacity="0.18"/>
</svg>
