<svg width="155" height="155" viewBox="0 0 155 155" fill="none" xmlns="http://www.w3.org/2000/svg">
<rect x="8.5" y="8.5" width="138" height="138" rx="69" stroke="white" stroke-opacity="0.5" stroke-linecap="square"/>
<rect x="0.5" y="0.5" width="154" height="154" rx="77" stroke="white" stroke-opacity="0.2" stroke-linecap="square"/>
<rect x="17.5" y="17.5" width="120" height="120" rx="60" stroke="white" stroke-linecap="square"/>
<path d="M79 52L53 59.9074V61.2857C53 76.5835 53.3398 85.5834 56.8231 92.6685C60.3064 99.7537 66.7552 104.342 78.0714 110.892L79 111.429L79.9286 110.892C91.2448 104.342 97.6936 99.7537 101.177 92.6685C104.66 85.5834 105 76.5835 105 61.2857V59.9074L79 52ZM91.4124 67.1401C94.7998 67.0435 96.5402 71.1545 94.111 73.5167L74.7706 92.8571L63.976 82.0625C60.3286 78.5636 65.7294 73.1628 69.2282 76.8103L74.7706 82.3527L88.8588 68.2645C89.5315 67.5721 90.4474 67.1688 91.4124 67.1401Z" fill="#56ED9B"/>
</svg>
