<svg width="14" height="15" viewBox="0 0 14 15" fill="none" xmlns="http://www.w3.org/2000/svg">
<path d="M13 3.84685V10.964C13 12.5362 10.4508 13.8108 7.30631 13.8108C4.16177 13.8108 1.61261 12.5362 1.61261 10.964V3.84685M13 3.84685C13 5.41912 10.4508 6.69369 7.30631 6.69369C4.16177 6.69369 1.61261 5.41912 1.61261 3.84685M13 3.84685C13 2.27458 10.4508 1 7.30631 1C4.16177 1 1.61261 2.27458 1.61261 3.84685M1.61261 7.40541C1.61261 8.97768 4.16177 10.2523 7.30631 10.2523C10.4508 10.2523 13 8.97768 13 7.40541" stroke="#82828D" stroke-width="1.42342"/>
</svg>
