<svg width="20" height="20" viewBox="0 0 20 20" fill="none" xmlns="http://www.w3.org/2000/svg">
<path d="M9.75037 6V10L12.2504 12.5" stroke="#B6B5B5" stroke-width="2" stroke-linecap="round" stroke-linejoin="round"/>
<path d="M2.08834 4.871L1.33834 4.874C1.33913 5.0717 1.41795 5.26109 1.55765 5.40098C1.69736 5.54088 1.88664 5.61995 2.08434 5.621L2.08834 4.871ZM4.63034 5.633C4.72883 5.63346 4.82645 5.61451 4.91762 5.57725C5.00879 5.53998 5.09173 5.48512 5.1617 5.4158C5.23167 5.34649 5.2873 5.26406 5.32541 5.17325C5.36353 5.08243 5.38338 4.98499 5.38384 4.8865C5.3843 4.78801 5.36536 4.69039 5.32809 4.59922C5.29083 4.50805 5.23597 4.42511 5.16665 4.35514C5.09733 4.28518 5.01491 4.22955 4.92409 4.19143C4.83327 4.15331 4.73583 4.13346 4.63734 4.133L4.63034 5.633ZM2.82534 2.321C2.82482 2.22251 2.8049 2.12508 2.76672 2.03429C2.72855 1.9435 2.67286 1.86111 2.60285 1.79184C2.53283 1.72257 2.44986 1.66777 2.35866 1.63056C2.26747 1.59335 2.16984 1.57447 2.07134 1.575C1.97285 1.57552 1.87543 1.59544 1.78464 1.63362C1.69384 1.6718 1.61146 1.72748 1.54219 1.7975C1.47291 1.86751 1.41811 1.95049 1.3809 2.04168C1.3437 2.13288 1.32482 2.23051 1.32534 2.329L2.82534 2.321ZM1.57734 8.785C1.59171 8.68698 1.58652 8.58708 1.56207 8.49108C1.53761 8.39508 1.49438 8.30487 1.43487 8.22567C1.37536 8.14647 1.30075 8.07984 1.21534 8.02964C1.12993 7.97944 1.03543 7.94665 0.93728 7.93318C0.839132 7.9197 0.739288 7.92581 0.643512 7.95114C0.547737 7.97647 0.457929 8.02052 0.379275 8.08076C0.300621 8.14099 0.23468 8.21621 0.18526 8.30207C0.13584 8.38793 0.10392 8.48273 0.0913436 8.581L1.57734 8.785ZM16.6123 3.138C12.7923 -0.682 6.61934 -0.722 2.82434 3.074L3.88434 4.134C7.08434 0.935 12.3073 0.954 15.5523 4.198L16.6123 3.138ZM2.88834 16.862C6.70834 20.682 12.8813 20.722 16.6763 16.926L15.6163 15.866C12.4163 19.065 7.19334 19.046 3.94834 15.802L2.88834 16.862ZM16.6763 16.926C20.4713 13.131 20.4323 6.958 16.6123 3.138L15.5523 4.198C18.7963 7.443 18.8153 12.666 15.6163 15.866L16.6763 16.926ZM2.82434 3.074L1.55734 4.34L2.61834 5.4L3.88434 4.134L2.82434 3.074ZM2.08434 5.621L4.63034 5.633L4.63734 4.133L2.09234 4.121L2.08434 5.621ZM2.83834 4.867L2.82534 2.321L1.32534 2.329L1.33834 4.874L2.83834 4.867ZM0.0903435 8.58C-0.114988 10.0827 0.0308075 11.6125 0.516283 13.0493C1.00176 14.4861 1.8137 15.7918 2.88834 16.862L3.94834 15.802C3.03757 14.8953 2.34945 13.7887 1.93805 12.5712C1.52665 11.3537 1.40318 10.0583 1.57734 8.785L0.0903435 8.58Z" fill="#B6B5B5"/>
</svg>
