<svg width="23" height="23" viewBox="0 0 23 23" fill="none" xmlns="http://www.w3.org/2000/svg">
<path d="M2.875 11.5L4.79167 9.58333M4.79167 9.58333L11.5 2.875L18.2083 9.58333M4.79167 9.58333V19.1667C4.79167 19.6959 5.22073 20.125 5.75 20.125H8.625M18.2083 9.58333L20.125 11.5M18.2083 9.58333V19.1667C18.2083 19.6959 17.7793 20.125 17.25 20.125H14.375M8.625 20.125C9.15427 20.125 9.58333 19.6959 9.58333 19.1667V15.3333C9.58333 14.8041 10.0124 14.375 10.5417 14.375H12.4583C12.9876 14.375 13.4167 14.8041 13.4167 15.3333V19.1667C13.4167 19.6959 13.8457 20.125 14.375 20.125M8.625 20.125H14.375" stroke="#B6B5B5" stroke-width="1.5" stroke-linecap="round" stroke-linejoin="round"/>
</svg>
