<svg width="12" height="12" viewBox="0 0 12 12" fill="none" xmlns="http://www.w3.org/2000/svg">
<path d="M6 0C4.81332 0 3.65328 0.351894 2.66658 1.01118C1.67989 1.67047 0.910851 2.60754 0.456726 3.7039C0.00259972 4.80026 -0.11622 6.00666 0.115291 7.17054C0.346802 8.33443 0.918247 9.40353 1.75736 10.2426C2.59648 11.0818 3.66558 11.6532 4.82946 11.8847C5.99335 12.1162 7.19975 11.9974 8.2961 11.5433C9.39246 11.0892 10.3295 10.3201 10.9888 9.33342C11.6481 8.34673 12 7.18669 12 6C12 4.4087 11.3679 2.88258 10.2426 1.75736C9.11743 0.632141 7.5913 0 6 0ZM5 2.575C5 2.37722 5.05865 2.18388 5.16853 2.01943C5.27842 1.85498 5.43459 1.72681 5.61732 1.65112C5.80005 1.57543 6.00111 1.55563 6.19509 1.59422C6.38907 1.6328 6.56726 1.72804 6.70711 1.86789C6.84696 2.00775 6.9422 2.18593 6.98079 2.37991C7.01937 2.57389 6.99957 2.77496 6.92388 2.95768C6.8482 3.14041 6.72002 3.29659 6.55557 3.40647C6.39113 3.51635 6.19778 3.575 6 3.575C5.86454 3.58178 5.7291 3.56093 5.60195 3.51373C5.47479 3.46652 5.35857 3.39393 5.26035 3.30039C5.16213 3.20685 5.08396 3.0943 5.03061 2.9696C4.97726 2.84489 4.94983 2.71064 4.95 2.575H5ZM8.5 9C8.5 9.13261 8.44733 9.25979 8.35356 9.35355C8.25979 9.44732 8.13261 9.5 8 9.5H4.5C4.36739 9.5 4.24022 9.44732 4.14645 9.35355C4.05268 9.25979 4 9.13261 4 9C4 8.86739 4.05268 8.74022 4.14645 8.64645C4.24022 8.55268 4.36739 8.5 4.5 8.5H5.5V5.5H5C4.8674 5.5 4.74022 5.44732 4.64645 5.35355C4.55268 5.25979 4.5 5.13261 4.5 5C4.5 4.86739 4.55268 4.74022 4.64645 4.64645C4.74022 4.55268 4.8674 4.5 5 4.5H7V8.5H8C8.13261 8.5 8.25979 8.55268 8.35356 8.64645C8.44733 8.74022 8.5 8.86739 8.5 9Z" fill="white" fill-opacity="0.25"/>
</svg>
