<svg width="22" height="25" viewBox="0 0 22 25" fill="none" xmlns="http://www.w3.org/2000/svg">
<path d="M21.3244 15.6756L19.125 13.4761V10.5625C19.1225 8.54899 18.3735 6.60794 17.0228 5.11467C15.6721 3.62141 13.8157 2.68201 11.8125 2.47813V0.8125H10.1875V2.47813C8.18434 2.68201 6.32793 3.62141 4.97724 5.11467C3.62654 6.60794 2.87752 8.54899 2.875 10.5625V13.4761L0.675562 15.6756C0.523179 15.8279 0.437546 16.0345 0.4375 16.25V18.6875C0.4375 18.903 0.523102 19.1097 0.675476 19.262C0.827849 19.4144 1.03451 19.5 1.25 19.5H6.9375V20.1313C6.91983 21.1621 7.28314 22.1631 7.95782 22.9426C8.63251 23.7221 9.5711 24.2252 10.5938 24.3555C11.1586 24.4115 11.7289 24.3487 12.268 24.1711C12.8071 23.9934 13.303 23.7049 13.7239 23.3241C14.1448 22.9433 14.4814 22.4786 14.7119 21.96C14.9424 21.4413 15.0619 20.8801 15.0625 20.3125V19.5H20.75C20.9655 19.5 21.1722 19.4144 21.3245 19.262C21.4769 19.1097 21.5625 18.903 21.5625 18.6875V16.25C21.5625 16.0345 21.4768 15.8279 21.3244 15.6756ZM13.4375 20.3125C13.4375 20.959 13.1807 21.579 12.7236 22.0361C12.2665 22.4932 11.6465 22.75 11 22.75C10.3535 22.75 9.73355 22.4932 9.27643 22.0361C8.81931 21.579 8.5625 20.959 8.5625 20.3125V19.5H13.4375V20.3125ZM19.9375 17.875H2.0625V16.5864L4.26194 14.3869C4.41432 14.2346 4.49995 14.028 4.5 13.8125V10.5625C4.5 8.83859 5.18482 7.18529 6.40381 5.96631C7.62279 4.74732 9.27609 4.0625 11 4.0625C12.7239 4.0625 14.3772 4.74732 15.5962 5.96631C16.8152 7.18529 17.5 8.83859 17.5 10.5625V13.8125C17.5 14.028 17.5857 14.2346 17.7381 14.3869L19.9375 16.5864V17.875Z" fill="white"/>
</svg>
