<svg width="18" height="18" viewBox="0 0 18 18" fill="none" xmlns="http://www.w3.org/2000/svg">
<path d="M17.25 11.1092C14.7023 12.1404 11.9175 12.7083 9 12.7083C6.08253 12.7083 3.29769 12.1404 0.75 11.1092M12.6667 4.45834V2.62501C12.6667 1.61248 11.8459 0.791672 10.8333 0.791672H7.16667C6.15414 0.791672 5.33333 1.61248 5.33333 2.62501V4.45834M9 9.95834H9.00917M2.58333 17.2917H15.4167C16.4292 17.2917 17.25 16.4709 17.25 15.4583V6.29167C17.25 5.27915 16.4292 4.45834 15.4167 4.45834H2.58333C1.57081 4.45834 0.75 5.27915 0.75 6.29167V15.4583C0.75 16.4709 1.57081 17.2917 2.58333 17.2917Z" stroke="#B6B5B5" stroke-width="1.4" stroke-linecap="round" stroke-linejoin="round"/>
</svg>
