<svg width="129" height="40" viewBox="0 0 129 40" fill="none" xmlns="http://www.w3.org/2000/svg">
<path fill-rule="evenodd" clip-rule="evenodd" d="M9.06566 0C4.05883 0 0 4.05883 0 9.06566V39.5467C0 39.7971 0.202947 40 0.453288 40H101.964C101.984 40 102 39.984 102 39.9642C102 39.9443 102.016 39.9283 102.036 39.9283C108.303 39.9522 115.09 39.9443 121.094 39.9374C123.706 39.9343 126.17 39.9314 128.379 39.9314C111.965 39.9314 109.957 25.8199 108.26 13.8931C108.183 13.3509 108.106 12.8133 108.029 12.2816C106.609 2.50076 100.337 0.055542 97.3785 0.055542H93.9436C93.6122 0.018842 93.2755 0 92.9343 0H9.06566Z" fill="url(#paint0_linear_555_958)"/>
<defs>
<linearGradient id="paint0_linear_555_958" x1="2.35398e-07" y1="20" x2="166.105" y2="37.3481" gradientUnits="userSpaceOnUse">
<stop stop-color="#C20505"/>
<stop offset="1" stop-color="#F84F4F"/>
</linearGradient>
</defs>
</svg>
