<svg width="20" height="17" viewBox="0 0 20 17" fill="none" xmlns="http://www.w3.org/2000/svg">
<path d="M18.4 3.09091H2.4C2.18783 3.09091 1.98434 3.0095 1.83431 2.86458C1.68429 2.71967 1.6 2.52312 1.6 2.31818C1.6 2.11324 1.68429 1.9167 1.83431 1.77178C1.98434 1.62687 2.18783 1.54545 2.4 1.54545H16C16.2122 1.54545 16.4157 1.46404 16.5657 1.31913C16.7157 1.17421 16.8 0.977667 16.8 0.772727C16.8 0.567787 16.7157 0.371241 16.5657 0.226327C16.4157 0.0814123 16.2122 0 16 0H2.4C1.76348 0 1.15303 0.244236 0.702944 0.67898C0.252856 1.11372 0 1.70336 0 2.31818V14.6818C0 15.2966 0.252856 15.8863 0.702944 16.321C1.15303 16.7558 1.76348 17 2.4 17H18.4C18.8243 17 19.2313 16.8372 19.5314 16.5473C19.8314 16.2575 20 15.8644 20 15.4545V4.63636C20 4.22648 19.8314 3.83339 19.5314 3.54356C19.2313 3.25373 18.8243 3.09091 18.4 3.09091ZM14.8 10.8182C14.5627 10.8182 14.3307 10.7502 14.1333 10.6228C13.936 10.4955 13.7822 10.3145 13.6913 10.1027C13.6005 9.89086 13.5768 9.65781 13.6231 9.43296C13.6694 9.20812 13.7836 9.00159 13.9515 8.83949C14.1193 8.67739 14.3331 8.56699 14.5659 8.52227C14.7987 8.47755 15.0399 8.5005 15.2592 8.58823C15.4785 8.67596 15.6659 8.82452 15.7978 9.01513C15.9296 9.20575 16 9.42984 16 9.65909C16 9.9665 15.8736 10.2613 15.6485 10.4787C15.4235 10.6961 15.1183 10.8182 14.8 10.8182Z" fill="#64DAFF"/>
</svg>
