<svg width="26" height="26" viewBox="0 0 26 26" fill="none" xmlns="http://www.w3.org/2000/svg">
<path d="M26 13C26 20.1797 20.1797 26 13 26C5.8203 26 0 20.1797 0 13C0 5.8203 5.8203 0 13 0C20.1797 0 26 5.8203 26 13Z" fill="#FFCC40"/>
<path fill-rule="evenodd" clip-rule="evenodd" d="M19.2743 9.37845C19.0687 7.24481 17.2267 6.52949 14.9012 6.32576L14.9012 3.36603L13.0991 3.36634L13.0993 6.24806C12.6261 6.248 12.142 6.25735 11.661 6.26695L11.6613 3.36616L9.86072 3.36611L9.86005 6.32498C9.47001 6.33295 9.08696 6.34019 8.71347 6.34044L8.71323 6.33126L6.22844 6.33041L6.22892 8.25454C6.22892 8.25454 7.5593 8.22917 7.53718 8.25367C8.26691 8.25389 8.50489 8.67741 8.57349 9.04311L8.57365 12.4148C8.62401 12.4151 8.6897 12.4172 8.76408 12.4274L8.57425 12.4275L8.57332 17.1511C8.54129 17.3808 8.4063 17.747 7.89646 17.7478C7.91952 17.7683 6.58687 17.7475 6.58687 17.7475L6.22904 19.8995L8.57399 19.8993C8.83876 19.8996 9.10094 19.9025 9.36025 19.9053C9.52812 19.9071 9.69514 19.9089 9.86052 19.91L9.8614 22.9039L11.661 22.9042L11.6614 19.9423C12.1551 19.9526 12.6333 19.9566 13.1001 19.9561L13.0993 22.9043L14.9009 22.9041L14.9015 19.916C17.9302 19.7422 20.0506 18.979 20.313 16.1355C20.5255 13.8453 19.4487 12.8232 17.7292 12.4099C18.7735 11.8771 19.427 10.9398 19.2743 9.37845ZM16.7531 15.7792C16.7536 17.8325 13.5276 17.7872 12.0528 17.7665C11.9208 17.7647 11.8027 17.763 11.7023 17.7631L11.7028 13.797C11.8255 13.797 11.9746 13.7935 12.1434 13.7895C13.6548 13.7538 16.7519 13.6808 16.7531 15.7792ZM11.9993 11.9848C13.2305 12.005 15.9143 12.0489 15.9148 10.1835C15.9151 8.27512 13.3331 8.34371 12.0721 8.37721C11.9303 8.38098 11.8053 8.3843 11.7024 8.38432L11.7023 11.9814C11.7872 11.9814 11.8872 11.983 11.9993 11.9848Z" fill="#31353F"/>
</svg>
