<svg width="221" height="246" viewBox="0 0 221 246" fill="none" xmlns="http://www.w3.org/2000/svg">
<path d="M23.1428 240H14C10.2724 240 8.40867 240 6.9385 239.391C4.97827 238.579 3.42088 237.022 2.60893 235.061C1.99997 233.591 1.99997 231.728 1.99997 228V219.32" stroke="white" stroke-width="3" stroke-linecap="round"/>
<path d="M198 240H207.143C210.87 240 212.734 240 214.204 239.391C216.164 238.579 217.722 237.022 218.534 235.061C219.143 233.591 219.143 231.728 219.143 228V219.32" stroke="white" stroke-width="3" stroke-linecap="round"/>
<path d="M23.1428 2H14C10.2724 2 8.40867 2 6.9385 2.60896C4.97827 3.42092 3.42088 4.97831 2.60893 6.93853C1.99997 8.4087 1.99997 10.2725 1.99997 14V22" stroke="white" stroke-width="3" stroke-linecap="round"/>
<path d="M198 2H207.143C210.87 2 212.734 2 214.204 2.60896C216.164 3.42092 217.722 4.97831 218.534 6.93853C219.143 8.4087 219.143 10.2725 219.143 14V22" stroke="white" stroke-width="3" stroke-linecap="round"/>
<g filter="url(#filter0_d_220_907)">
<g clip-path="url(#clip0_220_907)">
<path d="M78.2099 38.3697H24.7896V91.79H78.2099V38.3697ZM67.5258 81.1059H35.4736V49.0538H67.5258V81.1059Z" fill="white"/>
<path d="M56.8435 59.7399H46.1594V70.424H56.8435V59.7399Z" fill="white"/>
<path d="M142.315 38.3696V91.7899H195.735V38.3696H142.315ZM185.051 81.1059H152.999V49.0537H185.051V81.1059Z" fill="white"/>
<path d="M174.369 59.7399H163.685V70.424H174.369V59.7399Z" fill="white"/>
<path d="M24.7896 209.314H78.2099V155.893H24.7896V209.314ZM35.4736 166.578H67.5258V198.63H35.4736V166.578Z" fill="white"/>
<path d="M56.8435 177.264H46.1594V187.948H56.8435V177.264Z" fill="white"/>
<path d="M131.633 38.3696H110.265V49.0537H131.633V38.3696Z" fill="white"/>
<path d="M110.264 81.1083H120.948V70.4242H131.632V59.7402H99.5802V49.0561H88.8961V70.4242H110.264V81.1083Z" fill="white"/>
<path d="M99.5802 81.1063H88.8961V91.7904H99.5802V81.1063Z" fill="white"/>
<path d="M131.632 91.7917H120.948V102.476H88.8961V113.16H131.632V91.7917Z" fill="white"/>
<path d="M35.4736 134.529H46.1577V123.845H35.4736V102.476H24.7896V145.213H35.4736V134.529Z" fill="white"/>
<path d="M56.8435 102.476H46.1594V113.16H56.8435V102.476Z" fill="white"/>
<path d="M88.8952 145.213H110.263V134.529H99.5793V123.845H78.2112V102.476H67.5271V123.845H56.8431V145.213H67.5271V134.529H88.8952V145.213Z" fill="white"/>
<path d="M131.631 123.842H120.947V145.21H131.631V123.842Z" fill="white"/>
<path d="M120.948 155.893H88.8961V166.578H110.264V198.63H88.8961V209.314H120.948V198.63H142.316V187.946H120.948V155.893Z" fill="white"/>
<path d="M99.5802 177.264H88.8961V187.948H99.5802V177.264Z" fill="white"/>
<path d="M142.316 155.893H131.632V177.262H142.316V155.893Z" fill="white"/>
<path d="M185.052 177.264H153V209.316H163.684V187.948H185.052V177.264Z" fill="white"/>
<path d="M195.735 198.632H174.367V209.316H195.735V198.632Z" fill="white"/>
<path d="M195.736 155.893H185.052V166.577H195.736V155.893Z" fill="white"/>
<path d="M152.999 166.581H163.683V134.528H142.315V145.212H152.999V166.581Z" fill="white"/>
<path d="M174.367 113.16H163.683V102.476H152.999V113.16H142.315V123.845H185.051V113.16H195.735V102.476H174.367V113.16Z" fill="white"/>
<path d="M195.735 134.528H174.367V145.212H195.735V134.528Z" fill="white"/>
</g>
</g>
<rect x="2" y="114" width="217" height="102" fill="url(#paint0_linear_220_907)"/>
<line x1="2.74654" y1="114.247" x2="218.247" y2="113.253" stroke="#F84F4F" stroke-width="1.5" stroke-linecap="round"/>
<defs>
<filter id="filter0_d_220_907" x="2.415" y="17.05" width="219.275" height="229.833" filterUnits="userSpaceOnUse" color-interpolation-filters="sRGB">
<feFlood flood-opacity="0" result="BackgroundImageFix"/>
<feColorMatrix in="SourceAlpha" type="matrix" values="0 0 0 0 0 0 0 0 0 0 0 0 0 0 0 0 0 0 127 0" result="hardAlpha"/>
<feOffset dx="1.79" dy="13.425"/>
<feGaussianBlur stdDeviation="11.1875"/>
<feColorMatrix type="matrix" values="0 0 0 0 0.419608 0 0 0 0 0.447059 0 0 0 0 0.501961 0 0 0 0.06 0"/>
<feBlend mode="normal" in2="BackgroundImageFix" result="effect1_dropShadow_220_907"/>
<feBlend mode="normal" in="SourceGraphic" in2="effect1_dropShadow_220_907" result="shape"/>
</filter>
<linearGradient id="paint0_linear_220_907" x1="110.958" y1="47.9396" x2="110.958" y2="216" gradientUnits="userSpaceOnUse">
<stop stop-color="#BF3232" stop-opacity="0.2"/>
<stop offset="1" stop-color="#EB2323" stop-opacity="0"/>
</linearGradient>
<clipPath id="clip0_220_907">
<rect x="24.79" y="38.3701" width="170.945" height="170.945" rx="11.9264" fill="white"/>
</clipPath>
</defs>
</svg>
