<svg width="26" height="26" viewBox="0 0 26 26" fill="none" xmlns="http://www.w3.org/2000/svg">
<path d="M13 26C20.1797 26 26 20.1797 26 13C26 5.8203 20.1797 0 13 0C5.8203 0 0 5.8203 0 13C0 20.1797 5.8203 26 13 26Z" fill="#EF0027"/>
<path d="M17.8197 8.0543L6.09375 5.8963L12.2647 21.4248L20.8634 10.9484L17.8197 8.0543ZM17.6313 9.00493L19.4253 10.7104L14.5194 11.5984L17.6313 9.00493ZM13.4534 11.4205L8.28263 7.13211L16.7343 8.68724L13.4534 11.4205ZM13.0853 12.1794L12.2419 19.1506L7.696 7.70818L13.0853 12.1794ZM13.8653 12.5491L19.2985 11.5659L13.0666 19.1571L13.8653 12.5491Z" fill="white"/>
</svg>
