<svg width="22" height="22" viewBox="0 0 22 22" fill="none" xmlns="http://www.w3.org/2000/svg">
<path d="M11 22C17.0751 22 22 17.0751 22 11C22 4.92487 17.0751 0 11 0C4.92487 0 0 4.92487 0 11C0 17.0751 4.92487 22 11 22Z" fill="#26A17B"/>
<path fill-rule="evenodd" clip-rule="evenodd" d="M12.3224 11.9507V11.9494C12.2468 11.9549 11.857 11.9782 10.9873 11.9782C10.2929 11.9782 9.80409 11.9576 9.63221 11.9494V11.9514C6.95921 11.8339 4.96409 11.3684 4.96409 10.8115C4.96409 10.2554 6.95921 9.78993 9.63221 9.6703V11.488C9.80684 11.5004 10.3073 11.53 10.999 11.53C11.8288 11.53 12.2447 11.4956 12.3224 11.4887V9.67168C14.9899 9.79061 16.9802 10.2561 16.9802 10.8115C16.9802 11.3684 14.9899 11.8325 12.3224 11.9507ZM12.3224 9.48261V7.85599H16.0445V5.37549H5.91009V7.85599H9.63221V9.48193C6.60721 9.6208 4.33228 10.2203 4.33228 10.938C4.33228 11.6558 6.60721 12.2546 9.63221 12.3942V17.6068H12.3224V12.3928C15.3426 12.2539 17.612 11.6551 17.612 10.938C17.612 10.221 15.3426 9.62218 12.3224 9.48261Z" fill="white"/>
</svg>
