<svg width="19" height="19" viewBox="0 0 19 19" fill="none" xmlns="http://www.w3.org/2000/svg">
<path d="M2.5 9.5C2.5 9.8134 2.96101 10.3584 4.03047 10.8931C5.41405 11.5849 7.37677 12 9.5 12C11.6232 12 13.5859 11.5849 14.9695 10.8931C16.039 10.3584 16.5 9.8134 16.5 9.5V7.3287C14.85 8.3482 12.3273 9 9.5 9C6.67273 9 4.14996 8.3482 2.5 7.3287V9.5ZM16.5 12.3287C14.85 13.3482 12.3273 14 9.5 14C6.67273 14 4.14996 13.3482 2.5 12.3287V14.5C2.5 14.8134 2.96101 15.3584 4.03047 15.8931C5.41405 16.5849 7.37677 17 9.5 17C11.6232 17 13.5859 16.5849 14.9695 15.8931C16.039 15.3584 16.5 14.8134 16.5 14.5V12.3287ZM0.5 14.5V4.5C0.5 2.01472 4.52944 0 9.5 0C14.4706 0 18.5 2.01472 18.5 4.5V14.5C18.5 16.9853 14.4706 19 9.5 19C4.52944 19 0.5 16.9853 0.5 14.5ZM9.5 7C11.6232 7 13.5859 6.58492 14.9695 5.89313C16.039 5.3584 16.5 4.81342 16.5 4.5C16.5 4.18658 16.039 3.6416 14.9695 3.10687C13.5859 2.41508 11.6232 2 9.5 2C7.37677 2 5.41405 2.41508 4.03047 3.10687C2.96101 3.6416 2.5 4.18658 2.5 4.5C2.5 4.81342 2.96101 5.3584 4.03047 5.89313C5.41405 6.58492 7.37677 7 9.5 7Z" fill="white"/>
</svg>
