<svg width="40" height="40" viewBox="0 0 40 40" fill="none" xmlns="http://www.w3.org/2000/svg">
<path d="M8.34147 15.0047C9.26195 15.0047 10.0081 15.7509 10.0081 16.6713C12.7328 16.6713 15.2392 17.6053 17.2248 19.1705L20.8415 19.1713C23.0625 19.1713 25.058 20.1368 26.4313 21.6708L31.6748 21.6713C34.9953 21.6713 37.8622 23.6135 39.2017 26.4237C35.2603 31.6247 28.878 35.0047 21.6748 35.0047C17.0237 35.0047 13.0911 33.9993 9.90667 32.2415C9.67595 32.8807 9.06212 33.338 8.34147 33.338H3.34147C2.421 33.338 1.6748 32.5918 1.6748 31.6713V16.6713C1.6748 15.7509 2.421 15.0047 3.34147 15.0047H8.34147ZM10.0098 20.0047L10.0081 28.3747L10.0837 28.4288C13.0734 30.5295 16.9717 31.6713 21.6748 31.6713C26.6815 31.6713 31.3392 29.7453 34.7333 26.4557L34.9548 26.233L34.7562 26.0657C33.9828 25.4607 33.0342 25.0853 32.0165 25.0162L31.6748 25.0047H28.1557C28.2773 25.5407 28.3415 26.0985 28.3415 26.6713V28.338H13.3415V25.0047L24.6582 25.003L24.6008 24.8722C23.9667 23.5495 22.655 22.6135 21.1155 22.5135L20.8415 22.5047L15.9591 22.5045C14.4471 20.9622 12.3402 20.0052 10.0098 20.0047ZM6.6748 18.338H5.00813V30.0047H6.6748V18.338ZM30.0082 8.33801C32.7695 8.33801 35.0082 10.5766 35.0082 13.338C35.0082 16.0994 32.7695 18.338 30.0082 18.338C27.2467 18.338 25.0082 16.0994 25.0082 13.338C25.0082 10.5766 27.2467 8.33801 30.0082 8.33801ZM30.0082 11.6713C29.0877 11.6713 28.3415 12.4175 28.3415 13.338C28.3415 14.2585 29.0877 15.0047 30.0082 15.0047C30.9287 15.0047 31.6748 14.2585 31.6748 13.338C31.6748 12.4175 30.9287 11.6713 30.0082 11.6713ZM18.3415 3.33801C21.1028 3.33801 23.3415 5.57658 23.3415 8.33801C23.3415 11.0994 21.1028 13.338 18.3415 13.338C15.5801 13.338 13.3415 11.0994 13.3415 8.33801C13.3415 5.57658 15.5801 3.33801 18.3415 3.33801ZM18.3415 6.67135C17.421 6.67135 16.6748 7.41753 16.6748 8.33801C16.6748 9.25848 17.421 10.0047 18.3415 10.0047C19.262 10.0047 20.0082 9.25848 20.0082 8.33801C20.0082 7.41753 19.262 6.67135 18.3415 6.67135Z" fill="white"/>
</svg>
