<svg width="36" height="30" viewBox="0 0 36 30" fill="none" xmlns="http://www.w3.org/2000/svg">
<path d="M33.6749 6.6663H35.3415V23.333H33.6749V28.333C33.6749 29.2535 32.9287 29.9997 32.0082 29.9997H2.00816C1.08769 29.9997 0.341492 29.2535 0.341492 28.333V1.6663C0.341492 0.745817 1.08769 -0.000366211 2.00816 -0.000366211H32.0082C32.9287 -0.000366211 33.6749 0.745817 33.6749 1.6663V6.6663ZM30.3415 23.333H20.3415C15.7392 23.333 12.0082 19.602 12.0082 14.9997C12.0082 10.3973 15.7392 6.6663 20.3415 6.6663H30.3415V3.33297H3.67482V26.6663H30.3415V23.333ZM32.0082 19.9997V9.99963H20.3415C17.58 9.99963 15.3415 12.2382 15.3415 14.9997C15.3415 17.761 17.58 19.9997 20.3415 19.9997H32.0082ZM20.3415 13.333H25.3415V16.6663H20.3415V13.333Z" fill="white"/>
</svg>
